<?xml version="1.0" encoding="UTF-8"?>
<svg width="1880.5699" height="1554.7" version="1.1" xmlns="http://www.w3.org/2000/svg" xmlns:xlink="http://www.w3.org/1999/xlink">
<defs>
<linearGradient id="linearGradient3891" x1="1389.3785" x2="1389.3785" y1="1325.2603" y2="1567.2947" gradientTransform="translate(-264.90636)" gradientUnits="userSpaceOnUse">
<stop stop-color="#19181d" offset="0"/>
<stop stop-color="#242328" offset=".3413752"/>
<stop stop-color="#1e1d22" offset=".67257553"/>
<stop stop-color="#2c2b30" offset=".77451015"/>
<stop stop-color="#2e2d32" offset=".91250002"/>
<stop stop-color="#2e2d32" offset="1"/>
</linearGradient>
<linearGradient id="linearGradient4524" x1="1667.9099" x2="2113.6052" y1="-132.23711" y2="1457.5614" gradientUnits="userSpaceOnUse">
<stop stop-color="#fff" stop-opacity=".19607843" offset="0"/>
<stop stop-color="#fff" stop-opacity="0" offset="1"/>
</linearGradient>
<clipPath id="clipPath4530-2">
<path d="m402.3125 22c-43.36659 0-62.3125 13.263877-62.3125 62.3125v64.71875 990.81255h1880v-990.81255-64.71875c0-49.04863-18.946-62.3125-62.3125-62.3125h-133.4687-10.0938-1482.40625z" color="#000000"/>
</clipPath>
<clipPath id="clipPath4299-8">
<path d="m1280 1269.2812-189.1875 5.875c1.4926 55.4493-3.8888 117.8485-11.5625 174.4376-1.6327 12.0158-3.2125 25.0932-6 37.8124-3.662 14.5826-9.5395 23.8105-17.875 30.625-6.9834 5.645-15.9967 9.3791-24.3438 14.0313-12.3476 6.7808-22.4742 13.5746-29.1874 18.9687-2.82255 2.2745-5.95235 4.8861-8.31255 8.0938-0.3378 0.5287-0.4717 1.0068-0.4687 1.4375 0.012 1.744 2.4696 2.769 4.625 3.5625 6.95335 2.2628 19.96295 3.0294 35.59365 3.1562 8.4285 0.064 18.628-0.1244 27.9376-0.062h437.5624c9.3096-0.062 19.5091 0.1261 27.9376 0.062 15.6306-0.1268 28.6403-0.8934 35.5937-3.1562 2.1554-0.7935 4.6133-1.8185 4.625-3.5625 0-0.4307-0.1309-0.9088-0.4687-1.4375-2.3603-3.2077-5.49-5.8193-8.3126-8.0938-6.7131-5.3941-16.8398-12.1879-29.1874-18.9687-8.3471-4.6522-17.3604-8.3863-24.3438-14.0313-8.3355-6.8145-14.213-16.0424-17.875-30.625-2.7875-12.7192-4.3673-25.7966-6-37.8124-7.6737-56.5891-13.0551-118.9883-11.5625-174.4376z" fill-opacity=".78431373"/>
</clipPath>
<filter id="filter4281-8" x="-.34091958" y="-.30084389" width="1.6818392" height="1.6016878" color-interpolation-filters="sRGB">
<feGaussianBlur stdDeviation="15.692135"/>
</filter>
<clipPath id="clipPath3923-1">
<path d="m1280 1275.0977-148.8643 5.875c1.1745 55.4493-3.0599 117.8485-9.0981 174.4376-1.2847 12.0158-2.5277 25.0932-4.7211 37.8124-2.8815 14.5826-7.5063 23.8105-14.0652 30.625-5.4949 5.645-12.5871 9.3791-19.1552 14.0313-9.7158 6.7808-17.684 13.5746-22.9664 18.9687-2.2209 2.2745-4.6837 4.8861-6.5408 8.0938-0.2658 0.5287-0.3712 1.0068-0.3688 1.4375 0.01 1.744 1.9432 2.769 3.6392 3.5625 5.4713 2.2628 15.7081 3.0294 28.0073 3.1562 6.632 0.064 14.6576-0.1244 21.983-0.062h344.3008c7.3254-0.062 15.351 0.1261 21.983 0.062 12.2992-0.1268 22.536-0.8934 28.0073-3.1562 1.696-0.7935 3.6301-1.8185 3.6393-3.5625 0-0.4307-0.103-0.9088-0.3688-1.4375-1.8573-3.2077-4.3199-5.8193-6.5409-8.0938-5.2823-5.3941-13.2506-12.1879-22.9664-18.9687-6.568-4.6522-13.6602-8.3863-19.1552-14.0313-6.5589-6.8145-11.1837-16.0424-14.0652-30.625-2.1933-12.7192-3.4364-25.7966-4.7211-37.8124-6.0382-56.5891-10.2726-118.9883-9.0981-174.4376z"/>
</clipPath>
<linearGradient id="linearGradient5032" x1="171.46169" x2="1773.7581" y1="1201.6073" y2="1201.6073" gradientUnits="userSpaceOnUse">
<stop stop-color="#201f24" offset="0"/>
<stop stop-color="#353439" offset="1"/>
</linearGradient>
<clipPath id="clipPath5096">
<path d="m939.99927 1247.2803-189.1875 5.875c1.4926 55.4493-3.8888 117.8485-11.5625 174.4376-1.6327 12.0158-3.2125 25.0932-6 37.8124-3.662 14.5826-9.5395 23.8105-17.875 30.625-6.9834 5.645-15.9967 9.3791-24.3438 14.0313-12.3476 6.7808-22.4742 13.5746-29.1874 18.9687-2.82255 2.2745-5.95235 4.8861-8.31255 8.0938-0.3378 0.5287-0.4717 1.0068-0.4687 1.4375 0.012 1.744 2.4696 2.769 4.625 3.5625 6.95335 2.2628 19.96295 3.0294 35.59365 3.1562 8.4285 0.064 18.628-0.1244 27.9376-0.062h437.56243c9.3096-0.062 19.5091 0.1261 27.9376 0.062 15.6306-0.1268 28.6403-0.8934 35.5937-3.1562 2.1554-0.7935 4.6133-1.8185 4.625-3.5625 0-0.4307-0.1309-0.9088-0.4687-1.4375-2.3603-3.2077-5.49-5.8193-8.3126-8.0938-6.7131-5.3941-16.8398-12.1879-29.1874-18.9687-8.3471-4.6522-17.3604-8.3863-24.3438-14.0313-8.3355-6.8145-14.213-16.0424-17.875-30.625-2.7875-12.7192-4.3673-25.7966-6-37.8124-7.6737-56.5891-13.0551-118.9883-11.5625-174.4376z"/>
</clipPath>
<filter id="filter5209" x="-.024992359" y="-.36726717" width="1.0499847" height="1.7345343" color-interpolation-filters="sRGB">
<feGaussianBlur stdDeviation="9.8047143"/>
</filter>
<filter id="filter5293" x="-.17994987" y="-1.4932953" width="1.3598997" height="3.9865906" color-interpolation-filters="sRGB">
<feGaussianBlur stdDeviation="29.844637"/>
</filter>
<clipPath id="clipPath4299-8-2">
<path d="m1280 1269.2812-189.1875 5.875c1.4926 55.4493-3.8888 117.8485-11.5625 174.4376-1.6327 12.0158-3.2125 25.0932-6 37.8124-3.662 14.5826-9.5395 23.8105-17.875 30.625-6.9834 5.645-15.9967 9.3791-24.3438 14.0313-12.3476 6.7808-22.4742 13.5746-29.1874 18.9687-2.82255 2.2745-5.95235 4.8861-8.31255 8.0938-0.3378 0.5287-0.4717 1.0068-0.4687 1.4375 0.012 1.744 2.4696 2.769 4.625 3.5625 6.95335 2.2628 19.96295 3.0294 35.59365 3.1562 8.4285 0.064 18.628-0.1244 27.9376-0.062h437.5624c9.3096-0.062 19.5091 0.1261 27.9376 0.062 15.6306-0.1268 28.6403-0.8934 35.5937-3.1562 2.1554-0.7935 4.6133-1.8185 4.625-3.5625 0-0.4307-0.1309-0.9088-0.4687-1.4375-2.3603-3.2077-5.49-5.8193-8.3126-8.0938-6.7131-5.3941-16.8398-12.1879-29.1874-18.9687-8.3471-4.6522-17.3604-8.3863-24.3438-14.0313-8.3355-6.8145-14.213-16.0424-17.875-30.625-2.7875-12.7192-4.3673-25.7966-6-37.8124-7.6737-56.5891-13.0551-118.9883-11.5625-174.4376z" fill-opacity=".78431373"/>
</clipPath>
<filter id="filter4281-8-9" x="-.34091958" y="-.30084389" width="1.6818392" height="1.6016878" color-interpolation-filters="sRGB">
<feGaussianBlur stdDeviation="15.692135"/>
</filter>
<linearGradient id="linearGradient5334" x1="-1566.9408" x2="-1544.2991" y1="1565.2745" y2="1565.2745" gradientUnits="userSpaceOnUse" xlink:href="#linearGradient5332"/>
<linearGradient id="linearGradient5332">
<stop stop-color="#a8a7ad" stop-opacity="0" offset="0"/>
<stop stop-color="#a8a7ad" offset=".20036393"/>
<stop stop-color="#a8a7ad" offset=".44106662"/>
<stop stop-color="#a8a7ad" stop-opacity="0" offset="1"/>
</linearGradient>
<linearGradient id="linearGradient5390" x1="3930.5591" x2="3930.5591" y1="1792.0913" y2="1797.0602" gradientTransform="translate(-2975.2937,-241.62835)" gradientUnits="userSpaceOnUse">
<stop stop-color="#1f1f1f" offset="0"/>
<stop stop-color="#bebebe" offset="1"/>
</linearGradient>
<clipPath id="clipPath5411">
<path d="m-1279.9995 1553.847v19.0977h-263.955c-4.3637 0-8.1922-0.171-11.5528-0.4688-2.0963-0.1857-3.7058-0.4948-5.4531-0.7695-5.0593-2.8082-6.3477-6.649-5.9805-11.3867z" fill="#222126"/>
</clipPath>
<clipPath id="clipPath5411-9">
<path d="m-1279.9995 1553.847v19.0977h-263.955c-4.3637 0-8.1922-0.171-11.5528-0.4688-2.0963-0.1857-3.7058-0.4948-5.4531-0.7695-5.0593-2.8082-6.3477-6.649-5.9805-11.3867z" fill="#222126"/>
</clipPath>
<linearGradient id="linearGradient5524" x1="340" x2="2220" y1="580.9219" y2="580.9219" gradientUnits="userSpaceOnUse">
<stop stop-color="#040404" offset="0"/>
<stop stop-color="#0a0a0a" offset="1"/>
</linearGradient>
</defs>
<g>
<path d="m674.68164 1541.6914c-2.0963-0.1857-13.89528 8.2884-15.64258 8.0137 6.2961 3.4947 18.55835 5.3542 42.21485 4.9355h238.74609 238.7461c23.6565 0.4187 35.9187-1.4408 42.2148-4.9355-1.7473 0.2747-13.5462-8.1994-15.6425-8.0137-3.3606 0.2978-31.5448 5.3686-32.6348 5.3867l-245.72852-3.9199 6.29492 5.541-225.93555-1.6211c-1.09-0.0181-29.27221-5.0889-32.63281-5.3867z" fill="url(#linearGradient5390)"/>
<path d="m946.45898 1526.877-293.40039 11.4414c-0.3672 4.7378 0.92117 8.5786 5.98047 11.3867 1.7473 0.2748 3.35683 0.5838 5.45313 0.7695 3.3606 0.2978 7.18903 0.4688 11.55273 0.4688h263.95508 263.9551c4.3637 0 8.1921-0.171 11.5527-0.4688 2.0963-0.1857 3.7058-0.4947 5.4531-0.7695 5.0593-2.8081 6.3477-6.6489 5.9805-11.3867l-281.84765-6.3575 1.36523-5.0839z" fill="#222126"/>
<rect transform="matrix(-1,0,0,1,-340.0002,-22.00075)" x="-1566.9408" y="1544.8093" width="74.815582" height="38.131763" clip-path="url(#clipPath5411)" color="#000000" fill="url(#linearGradient5334)"/>
<rect transform="translate(2219.9988,-22.00075)" x="-1566.9408" y="1544.8093" width="74.815582" height="38.131763" clip-path="url(#clipPath5411-9)" color="#000000" fill="url(#linearGradient5334)"/>
</g>
<g transform="translate(-340.00073,-22.000949)">
<path d="m1280 1269.2812-189.1875 5.875c1.4926 55.4493-3.8888 117.8485-11.5625 174.4376-1.6327 12.0158-3.2125 25.0932-6 37.8124-3.662 14.5826-9.5395 23.8105-17.875 30.625-6.9834 5.645-15.9967 9.3791-24.3438 14.0313-12.3476 6.7808-22.4742 13.5746-29.1874 18.9687-2.82255 2.2745-5.95235 4.8861-8.31255 8.0938-0.3378 0.5287-0.4717 1.0068-0.4687 1.4375 0.012 1.744 2.4696 2.769 4.625 3.5625 6.95335 2.2628 19.96295 3.0294 35.59365 3.1562 8.4285 0.064 18.628-0.1244 27.9376-0.062h437.5624c9.3096-0.062 19.5091 0.1261 27.9376 0.062 15.6306-0.1268 28.6403-0.8934 35.5937-3.1562 2.1554-0.7935 4.6133-1.8185 4.625-3.5625 0-0.4307-0.1309-0.9088-0.4687-1.4375-2.3603-3.2077-5.49-5.8193-8.3126-8.0938-6.7131-5.3941-16.8398-12.1879-29.1874-18.9687-8.3471-4.6522-17.3604-8.3863-24.3438-14.0313-8.3355-6.8145-14.213-16.0424-17.875-30.625-2.7875-12.7192-4.3673-25.7966-6-37.8124-7.6737-56.5891-13.0551-118.9883-11.5625-174.4376z" fill="url(#linearGradient3891)"/>
</g>
<path transform="translate(-340.00073,-22.000949)" d="m993.05907 1498.1348c31.35393-4.6892 58.17353 5.7427 82.88933 15.9892-98.90843 40.722 65.8782 50.5012 47.4667 64.3685-18.4116 13.8674-145.14609 33.5899-163.55763 44.0683l9.57123-93.6614z" clip-path="url(#clipPath4299-8)" fill="#807f85" filter="url(#filter4281-8)"/>
<g transform="translate(879.91218,-22.000949)" fill="#706f75">
<rect transform="matrix(1.2708723,0,0,1,-1566.6295,-5.8164695)" x="1080.9803" y="1435.9877" width="398.03934" height="47.965816" rx="199.01967" ry="23.982908" clip-path="url(#clipPath3923-1)" color="#000000" fill="#706f75" filter="url(#filter5293)"/>
</g>
<rect transform="translate(-1.5e-5)" x="469.51483" y="1431.8102" width="941.54034" height="41.584538" rx="252.92859" ry="20.792269" clip-path="url(#clipPath5096)" color="#000000" fill="#6c6b71" fill-opacity=".54854369" filter="url(#filter5209)"/>
<g>
<g transform="translate(-340.00073,-22.000949)">
<path d="m340 1139.8438v45.1874 64.7188c0 49.0486 18.946 62.3125 62.3125 62.3125h133.46875 10.09375 1482.4062 129.4063c43.3665 0 62.3125-13.2639 62.3125-62.3125v-109.9062z" color="#000000"/>
</g>
<path d="m-7.3e-4 1115.4979v45.1874 64.7188c0 49.0486 18.95176 62.3125 62.33143 62.3125h133.50932 10.09682 1482.85676 129.4457c43.3797 0 62.3314-13.2639 62.3314-62.3125v-109.9062z" color="#000000" fill="url(#linearGradient5032)"/>
<g transform="translate(-340.00073,-22.000949)" fill="#010101">
<g fill="#010101" stroke-width="1.5">
<path d="m1280.826 1199.7834c1.5986 1e-4 4.2097-0.6216 7.8333-1.865 3.6234-1.2433 6.7674-1.865 9.4318-1.8651 4.3695 1e-4 8.2595 1.1724 11.67 3.517 1.9183 1.35 3.8188 3.1795 5.7017 5.4886-2.842 2.4157-4.9202 4.565-6.2346 6.4478-2.3802 3.4104-3.5703 7.1761-3.5702 11.2969-1e-4 4.5117 1.261 8.5793 3.7834 12.2028 2.5222 3.6236 5.3997 5.915 8.6325 6.8741-1.35 4.3696-3.5881 8.9346-6.7142 13.6949-4.7249 7.1405-9.4142 10.7108-14.0679 10.7108-1.8473 0-4.3962-0.5862-7.6467-1.7585-3.2506-1.1723-5.9949-1.7585-8.2329-1.7585-2.2382 0-4.8404 0.6128-7.8067 1.8384s-5.3731 1.8384-7.2204 1.8384c-5.5774 0-11.0483-4.7248-16.4125-14.1744-5.3643-9.3431-8.0465-18.5085-8.0465-27.4964 0-8.3483 2.0516-15.1513 6.1547-20.4091 4.1032-5.2576 9.2809-7.8864 15.5333-7.8865 2.6644 1e-4 5.8883 0.5507 9.6717 1.6519 3.7834 1.1014 6.2968 1.652 7.5402 1.6519zm16.679-22.0077c-1e-4 2.2737-0.533 4.7604-1.5987 7.4602-1.0658 2.7-2.7532 5.2045-5.0623 7.5136-1.9894 1.9539-3.961 3.2683-5.9149 3.9433-1.2434 0.3908-3.1262 0.6928-5.6484 0.9058 0.071-5.3997 1.4831-10.0712 4.2363-14.0146 2.7532-3.9432 7.3092-6.643 13.6682-8.0997 0.1421 0.462 0.2309 0.8705 0.2665 1.2257 0.035 0.3553 0.053 0.7105 0.053 1.0657z" fill="#010101"/>
</g>
</g>
<g transform="translate(-339.71503,-22.000949)" fill="url(#linearGradient5524)">
<path d="m402.3125 22c-43.36659 0-62.3125 13.263877-62.3125 62.3125v64.71875 990.81255h1880v-990.81255-64.71875c0-49.04863-18.946-62.3125-62.3125-62.3125h-133.4687-10.0938-1482.40625z" color="#000000" fill="url(#linearGradient5524)"/>
</g>
</g>
<g transform="translate(-340.00073,-22.000949)">
<rect x="419.13281" y="96.380974" width="1721.7344" height="969.08185" color="#000000"/>
</g>
<g transform="translate(-64.536524,2097.3869)">
<path d="m1420.0909 9.7717973 632.524 1414.047203 333.2581 21.2266 6.368-1511.335884z" clip-path="url(#clipPath4530-2)" fill="url(#linearGradient4524)"/>
</g>
<path transform="matrix(-1,0,0,1,2219.9993,-22.000952)" d="m993.05907 1498.1348c31.35393-4.6892 58.17353 5.7427 82.88933 15.9892-98.90843 40.722 65.8782 50.5012 47.4667 64.3685-18.4116 13.8674-145.14609 33.5899-163.55763 44.0683l9.57123-93.6614z" clip-path="url(#clipPath4299-8-2)" fill="#807f85" filter="url(#filter4281-8-9)"/>
</svg>
